<svg xmlns="http://www.w3.org/2000/svg" width="192" height="192" viewBox="0 0 192 192">
  <defs>
    <radialGradient id="bg" cx="30%" cy="20%" r="85%">
      <stop offset="0%" stop-color="#161616"/>
      <stop offset="70%" stop-color="#000000"/>
    </radialGradient>
    <linearGradient id="wa" x1="-61.03" y1="0" x2="61.03" y2="0" gradientUnits="userSpaceOnUse"><stop offset="0%" stop-color="#818cf8"/><stop offset="100%" stop-color="#4f46e5"/></linearGradient>
    <linearGradient id="wb" x1="-39.06" y1="0" x2="39.06" y2="0" gradientUnits="userSpaceOnUse"><stop offset="0%" stop-color="#4f46e5"/><stop offset="100%" stop-color="#818cf8"/></linearGradient>
    <linearGradient id="wc" x1="-39.06" y1="0" x2="39.06" y2="0" gradientUnits="userSpaceOnUse"><stop offset="0%" stop-color="#a78bfa"/><stop offset="100%" stop-color="#6d28d9"/></linearGradient>
    <linearGradient id="wd" x1="-61.03" y1="0" x2="61.03" y2="0" gradientUnits="userSpaceOnUse"><stop offset="0%" stop-color="#6d28d9"/><stop offset="100%" stop-color="#7c3aed"/></linearGradient>
    <filter id="soft" x="-100%" y="-100%" width="300%" height="300%"><feGaussianBlur stdDeviation="6"/></filter>
  </defs>
  <rect width="192" height="192" fill="url(#bg)"/>
  <g transform="translate(96 96) scale(1.06) translate(-100 -114)">
    <ellipse cx="82" cy="172" rx="16" ry="10" fill="#000000" opacity="0.35" filter="url(#soft)"/>
    <ellipse cx="100" cy="96" rx="16" ry="10" fill="#000000" opacity="0.35" filter="url(#soft)"/>
    <ellipse cx="118" cy="172" rx="16" ry="10" fill="#000000" opacity="0.35" filter="url(#soft)"/>
    <g transform="translate(63 114) rotate(71.9)"><rect x="-61.03" y="-13" width="122.07" height="26" rx="9" fill="url(#wa)"/></g>
    <g transform="translate(91 134) rotate(-76.7)"><rect x="-39.06" y="-13" width="78.1" height="26" rx="9" fill="url(#wb)"/></g>
    <g transform="translate(109 134) rotate(76.7)"><rect x="-39.06" y="-13" width="78.1" height="26" rx="9" fill="url(#wc)"/></g>
    <g transform="translate(137 114) rotate(-71.9)"><rect x="-61.03" y="-13" width="122.07" height="26" rx="9" fill="url(#wd)"/></g>
  </g>
</svg>
